<svg xmlns="http://www.w3.org/2000/svg" width="1200" height="500" viewBox="0 0 1200 500" fill="none">
  <defs>
    <linearGradient id="g" x1="0" y1="0" x2="1200" y2="500" gradientUnits="userSpaceOnUse">
      <stop stop-color="#0B1F3A"/>
      <stop offset="1" stop-color="#1A4D8F"/>
    </linearGradient>
  </defs>
  <rect width="1200" height="500" rx="40" fill="url(#g)"/>
  <g opacity="0.9">
    <circle cx="290" cy="185" r="60" fill="#60A5FA" fill-opacity="0.85"/>
    <g stroke="#93C5FD" stroke-opacity="0.75" stroke-width="10" stroke-linecap="round">
      <path d="M290 90v40"/>
      <path d="M290 240v40"/>
      <path d="M195 185h40"/>
      <path d="M345 185h40"/>
      <path d="M222 117l28 28"/>
      <path d="M330 225l28 28"/>
      <path d="M358 117l-28 28"/>
      <path d="M250 225l-28 28"/>
    </g>
    <rect x="470" y="220" width="420" height="170" rx="26" fill="white" fill-opacity="0.10" stroke="white" stroke-opacity="0.18" stroke-width="6"/>
    <g opacity="0.7" stroke="#E5E7EB" stroke-width="8">
      <path d="M510 260h340"/>
      <path d="M510 300h340"/>
      <path d="M510 340h340"/>
      <path d="M570 230v150"/>
      <path d="M660 230v150"/>
      <path d="M750 230v150"/>
    </g>
  </g>
</svg>
